<svg width="13" height="16" viewBox="0 0 13 16" fill="none" xmlns="http://www.w3.org/2000/svg">
<path fill-rule="evenodd" clip-rule="evenodd" d="M3.82349 10.1818C2.5565 10.1818 1.5294 11.1587 1.5294 12.3636C1.5294 13.5686 2.5565 14.5455 3.82349 14.5455C5.09048 14.5455 6.11759 13.5686 6.11759 12.3636C6.11759 11.1587 5.09048 10.1818 3.82349 10.1818ZM0 12.3636C0 10.3553 1.71184 8.72727 3.82349 8.72727C5.93515 8.72727 7.64698 10.3553 7.64698 12.3636C7.64698 14.3719 5.93515 16 3.82349 16C1.71184 16 0 14.3719 0 12.3636Z" fill="#CDD6F4"/>
<path fill-rule="evenodd" clip-rule="evenodd" d="M6.49846 0.0982472C6.73423 -0.0318779 7.025 -0.0328014 7.26168 0.0958232L12.6146 3.00491C12.9813 3.20419 13.1086 3.64845 12.8991 3.99719C12.6896 4.34593 12.2225 4.46709 11.8558 4.26781L7.64698 1.98049V12.3636C7.64698 12.7653 7.30461 13.0909 6.88228 13.0909C6.45995 13.0909 6.11759 12.7653 6.11759 12.3636V0.727273C6.11759 0.468022 6.26269 0.228372 6.49846 0.0982472Z" fill="#CDD6F4"/>
</svg>
