<svg width="32" height="16" viewBox="0 0 32 16" fill="none" xmlns="http://www.w3.org/2000/svg">
<path fill-rule="evenodd" clip-rule="evenodd" d="M24 1.33333H8C4.3181 1.33333 1.33333 4.3181 1.33333 8C1.33333 11.6819 4.3181 14.6667 8 14.6667H24C27.6819 14.6667 30.6667 11.6819 30.6667 8C30.6667 4.3181 27.6819 1.33333 24 1.33333ZM8 0C3.58172 0 0 3.58172 0 8C0 12.4183 3.58172 16 8 16H24C28.4183 16 32 12.4183 32 8C32 3.58172 28.4183 0 24 0H8Z" fill="#CDD6F4"/>
<path d="M3.33333 8C3.33333 5.42267 5.42267 3.33333 8 3.33333H24C26.5773 3.33333 28.6667 5.42267 28.6667 8C28.6667 10.5773 26.5773 12.6667 24 12.6667H8C5.42267 12.6667 3.33333 10.5773 3.33333 8Z" fill="#CDD6F4"/>
</svg>
