<svg width="16" height="14" viewBox="0 0 16 14" fill="none" xmlns="http://www.w3.org/2000/svg">
<path fill-rule="evenodd" clip-rule="evenodd" d="M15.6653 6.17504C16.1116 6.63065 16.1116 7.36935 15.6653 7.82496L9.95098 13.6583C9.50467 14.1139 8.78105 14.1139 8.33474 13.6583C7.88842 13.2027 7.88842 12.464 8.33474 12.0084L13.2409 7L8.33474 1.99162C7.88842 1.53601 7.88842 0.79732 8.33474 0.341708C8.78105 -0.113903 9.50467 -0.113903 9.95098 0.341709L15.6653 6.17504ZM1.95098 0.341708L7.66526 6.17504C8.11158 6.63065 8.11158 7.36935 7.66526 7.82496L1.95098 13.6583C1.50467 14.1139 0.781049 14.1139 0.334736 13.6583C-0.111578 13.2027 -0.111578 12.464 0.334736 12.0084L5.2409 7L0.334736 1.99162C-0.111578 1.53601 -0.111578 0.79732 0.334736 0.341708C0.781049 -0.113904 1.50467 -0.113904 1.95098 0.341708Z" fill="#CDD6F4"/>
</svg>
